<svg width="57" height="58" viewBox="0 0 57 58" fill="none" xmlns="http://www.w3.org/2000/svg">
<path d="M8.28191 58.0002C6.08596 57.9984 3.98045 57.1253 2.42767 55.5725C0.874895 54.0197 0.00176879 51.9142 0 49.7183V20.1238C0 19.8103 0.124548 19.5096 0.346249 19.2879C0.56795 19.0662 0.868641 18.9417 1.18217 18.9417C1.49571 18.9417 1.7964 19.0662 2.0181 19.2879C2.2398 19.5096 2.36435 19.8103 2.36435 20.1238C2.36435 21.6932 2.98781 23.1984 4.09757 24.3081C5.20732 25.4179 6.71248 26.0414 8.28191 26.0414C9.85135 26.0414 11.3565 25.4179 12.4663 24.3081C13.576 23.1984 14.1995 21.6932 14.1995 20.1238C14.2219 19.8248 14.3566 19.5453 14.5764 19.3413C14.7963 19.1374 15.0851 19.024 15.385 19.024C15.6849 19.024 15.9737 19.1374 16.1935 19.3413C16.4134 19.5453 16.548 19.8248 16.5705 20.1238V49.7183C16.567 51.9149 15.6924 54.0203 14.1385 55.5729C12.5847 57.1255 10.4785 57.9984 8.28191 58.0002ZM2.36435 25.9412V49.7383C2.36435 51.3078 2.98781 52.8129 4.09757 53.9227C5.20732 55.0324 6.71248 55.6559 8.28191 55.6559C9.85135 55.6559 11.3565 55.0324 12.4663 53.9227C13.576 52.8129 14.1995 51.3078 14.1995 49.7383V25.9211C13.4288 26.7096 12.5083 27.336 11.4921 27.7637C10.4759 28.1914 9.38445 28.4118 8.28191 28.4118C7.17937 28.4118 6.08795 28.1914 5.07175 27.7637C4.05555 27.336 3.13506 26.7096 2.36435 25.9211V25.9412Z" fill="#7C94FF"/>
<path d="M28.4061 58.0002C26.2118 57.9949 24.1091 57.1204 22.5581 55.5682C21.0072 54.016 20.1344 51.9125 20.1309 49.7183V20.1238C20.1533 19.8248 20.288 19.5453 20.5078 19.3413C20.7277 19.1374 21.0165 19.024 21.3164 19.024C21.6163 19.024 21.9051 19.1374 22.1249 19.3413C22.3448 19.5453 22.4794 19.8248 22.5019 20.1238C22.5019 20.9009 22.655 21.6704 22.9523 22.3883C23.2497 23.1063 23.6856 23.7586 24.2351 24.3081C24.7846 24.8576 25.4369 25.2936 26.1549 25.5909C26.8729 25.8883 27.6423 26.0414 28.4195 26.0414C29.1966 26.0414 29.9661 25.8883 30.684 25.5909C31.402 25.2936 32.0543 24.8576 32.6038 24.3081C33.1533 23.7586 33.5892 23.1063 33.8866 22.3883C34.1839 21.6704 34.337 20.9009 34.337 20.1238C34.337 19.9686 34.3676 19.8149 34.427 19.6714C34.4864 19.528 34.5735 19.3976 34.6833 19.2879C34.793 19.1781 34.9234 19.091 35.0668 19.0316C35.2102 18.9722 35.3639 18.9417 35.5192 18.9417C35.6744 18.9417 35.8282 18.9722 35.9716 19.0316C36.115 19.091 36.2453 19.1781 36.3551 19.2879C36.4649 19.3976 36.552 19.528 36.6114 19.6714C36.6708 19.8149 36.7014 19.9686 36.7014 20.1238V49.7183C36.7005 50.8068 36.4852 51.8844 36.0679 52.8897C35.6505 53.895 35.0393 54.8082 34.269 55.5773C33.4987 56.3463 32.5845 56.9561 31.5785 57.3718C30.5726 57.7875 29.4946 58.0011 28.4061 58.0002ZM22.4885 25.9412V49.7383C22.4885 51.3078 23.112 52.8129 24.2217 53.9227C25.3315 55.0324 26.8367 55.6559 28.4061 55.6559C29.9755 55.6559 31.4807 55.0324 32.5904 53.9227C33.7002 52.8129 34.3237 51.3078 34.3237 49.7383V25.9211C33.5529 26.7096 32.6325 27.336 31.6163 27.7637C30.6001 28.1914 29.5086 28.4118 28.4061 28.4118C27.3036 28.4118 26.2121 28.1914 25.1959 27.7637C24.1797 27.336 23.2592 26.7096 22.4885 25.9211V25.9412Z" fill="#7C94FF"/>
<path d="M48.5308 58.0002C46.3342 57.9984 44.228 57.1255 42.6742 55.5729C41.1203 54.0203 40.2457 51.9149 40.2422 49.7183V20.1238C40.2646 19.8248 40.3993 19.5453 40.6192 19.3413C40.839 19.1374 41.1278 19.024 41.4277 19.024C41.7276 19.024 42.0164 19.1374 42.2363 19.3413C42.4561 19.5453 42.5908 19.8248 42.6132 20.1238C42.6132 21.6932 43.2367 23.1984 44.3464 24.3081C45.4562 25.4179 46.9613 26.0414 48.5308 26.0414C50.1002 26.0414 51.6054 25.4179 52.7151 24.3081C53.8249 23.1984 54.4483 21.6932 54.4483 20.1238C54.4483 19.8103 54.5729 19.5096 54.7946 19.2879C55.0163 19.0662 55.317 18.9417 55.6305 18.9417C55.944 18.9417 56.2447 19.0662 56.4664 19.2879C56.6881 19.5096 56.8127 19.8103 56.8127 20.1238V49.7183C56.8109 51.9142 55.9378 54.0197 54.385 55.5725C52.8322 57.1253 50.7267 57.9984 48.5308 58.0002ZM42.6132 25.9412V49.7383C42.6132 51.3078 43.2367 52.8129 44.3464 53.9227C45.4562 55.0324 46.9613 55.6559 48.5308 55.6559C50.1002 55.6559 51.6054 55.0324 52.7151 53.9227C53.8249 52.8129 54.4483 51.3078 54.4483 49.7383V25.9211C53.6776 26.7096 52.7571 27.336 51.7409 27.7637C50.7247 28.1914 49.6333 28.4118 48.5308 28.4118C47.4282 28.4118 46.3368 28.1914 45.3206 27.7637C44.3044 27.336 43.3839 26.7096 42.6132 25.9211V25.9412Z" fill="#7C94FF"/>
<path d="M8.28191 28.4123C6.08534 28.4088 3.97985 27.5342 2.42726 25.9803C0.874678 24.4265 0.00176573 22.3203 1.48255e-10 20.1237V1.18887C-4.95744e-06 0.874725 0.12433 0.573343 0.345841 0.35058C0.567352 0.127818 0.868029 0.00176489 1.18217 0H15.3883C15.7025 0.00176489 16.0032 0.127818 16.2247 0.35058C16.4462 0.573343 16.5705 0.874725 16.5705 1.18887V20.1237C16.567 22.3209 15.6926 24.4271 14.1389 25.9807C12.5853 27.5344 10.4791 28.4088 8.28191 28.4123ZM2.36435 2.36438V20.117C2.36435 21.6865 2.98781 23.1917 4.09757 24.3014C5.20732 25.4112 6.71248 26.0346 8.28191 26.0346C9.85135 26.0346 11.3565 25.4112 12.4663 24.3014C13.576 23.1917 14.1995 21.6865 14.1995 20.117V2.37106L2.36435 2.36438Z" fill="#7C94FF"/>
<path d="M28.4061 28.4123C26.2112 28.4053 24.1085 27.5293 22.5577 25.976C21.0069 24.4228 20.1344 22.3186 20.1309 20.1237V1.18887C20.1309 0.873571 20.2561 0.571169 20.4791 0.348216C20.702 0.125262 21.0044 0 21.3197 0H35.4925C35.8066 0.00176489 36.1073 0.127818 36.3288 0.35058C36.5503 0.573343 36.6747 0.874725 36.6747 1.18887V20.1237C36.6729 22.318 35.8018 24.4222 34.2521 25.9756C32.7024 27.5291 30.6003 28.4053 28.4061 28.4123ZM22.4885 2.36438V20.117C22.4885 21.6865 23.112 23.1917 24.2217 24.3014C25.3315 25.4112 26.8367 26.0346 28.4061 26.0346C29.9755 26.0346 31.4807 25.4112 32.5904 24.3014C33.7002 23.1917 34.3237 21.6865 34.3237 20.117V2.37106L22.4885 2.36438Z" fill="#7C94FF"/>
<path d="M48.5308 28.4123C46.3336 28.4088 44.2274 27.5344 42.6738 25.9807C41.1201 24.4271 40.2457 22.3209 40.2422 20.1237V1.18887C40.2422 0.874725 40.3665 0.573343 40.588 0.35058C40.8095 0.127818 41.1102 0.00176489 41.4244 0H55.6305C55.9447 0.00176489 56.2453 0.127818 56.4669 0.35058C56.6884 0.573343 56.8127 0.874725 56.8127 1.18887V20.1237C56.8109 22.3203 55.938 24.4265 54.3854 25.9803C52.8328 27.5342 50.7274 28.4088 48.5308 28.4123ZM42.6132 2.36438V20.117C42.6132 21.6865 43.2367 23.1917 44.3464 24.3014C45.4562 25.4112 46.9613 26.0346 48.5308 26.0346C50.1002 26.0346 51.6054 25.4112 52.7151 24.3014C53.8249 23.1917 54.4483 21.6865 54.4483 20.117V2.37106L42.6132 2.36438Z" fill="#7C94FF"/>
<path d="M30.7711 52.0824H26.0424C25.7282 52.0824 25.4268 51.9581 25.2041 51.7366C24.9813 51.515 24.8553 51.2144 24.8535 50.9002V46.1648C24.8553 45.8507 24.9813 45.55 25.2041 45.3285C25.4268 45.107 25.7282 44.9827 26.0424 44.9827H30.7711C31.0852 44.9827 31.3866 45.107 31.6094 45.3285C31.8321 45.55 31.9582 45.8507 31.9599 46.1648V50.9002C31.9582 51.2144 31.8321 51.515 31.6094 51.7366C31.3866 51.9581 31.0852 52.0824 30.7711 52.0824ZM27.2245 49.718H29.5889V47.347H27.2245V49.718Z" fill="#7C94FF"/>
<path d="M10.6547 52.0824H5.91932C5.60517 52.0824 5.30379 51.9581 5.08103 51.7366C4.85827 51.515 4.73223 51.2144 4.73047 50.9002V46.1648C4.73223 45.8507 4.85827 45.55 5.08103 45.3285C5.30379 45.107 5.60517 44.9827 5.91932 44.9827H10.6547C10.9682 44.9827 11.2689 45.1072 11.4906 45.3289C11.7123 45.5506 11.8369 45.8513 11.8369 46.1648V50.9002C11.8369 51.2137 11.7123 51.5144 11.4906 51.7361C11.2689 51.9578 10.9682 52.0824 10.6547 52.0824ZM7.1015 49.718H9.44581V47.347H7.1015V49.718Z" fill="#7C94FF"/>
<path d="M50.8941 52.0824H46.1788C46.0219 52.0851 45.866 52.0564 45.7202 51.9982C45.5745 51.94 45.4418 51.8534 45.3299 51.7433C45.218 51.6333 45.1291 51.502 45.0684 51.3573C45.0078 51.2125 44.9765 51.0572 44.9766 50.9002V46.1648C44.9766 45.8513 45.1011 45.5506 45.3228 45.3289C45.5445 45.1072 45.8452 44.9827 46.1587 44.9827H50.8941C51.2083 44.9827 51.5097 45.107 51.7324 45.3285C51.9552 45.55 52.0812 45.8507 52.083 46.1648V50.9002C52.0812 51.2144 51.9552 51.515 51.7324 51.7366C51.5097 51.9581 51.2083 52.0824 50.8941 52.0824ZM47.3476 49.718H49.7119V47.347H47.3476V49.718Z" fill="#7C94FF"/>
<path d="M35.4922 41.4297H21.306C20.9919 41.4297 20.6905 41.3053 20.4677 41.0838C20.245 40.8623 20.119 40.5616 20.1172 40.2475V33.1477C20.119 32.8336 20.245 32.5329 20.4677 32.3114C20.6905 32.0899 20.9919 31.9656 21.306 31.9656H35.4922C35.8057 31.9656 36.1064 32.0901 36.3281 32.3118C36.5498 32.5335 36.6743 32.8342 36.6743 33.1477V40.2475C36.6743 40.4027 36.6438 40.5564 36.5843 40.6999C36.5249 40.8433 36.4379 40.9736 36.3281 41.0834C36.2183 41.1932 36.088 41.2802 35.9446 41.3396C35.8011 41.3991 35.6474 41.4297 35.4922 41.4297ZM22.4749 39.0653H34.31V34.3299H22.4882L22.4749 39.0653Z" fill="#7C94FF"/>
<path d="M15.3883 41.4297H1.18217C0.868641 41.4297 0.56795 41.3051 0.346249 41.0834C0.124548 40.8617 0 40.561 0 40.2475V33.1477C0 32.8342 0.124548 32.5335 0.346249 32.3118C0.56795 32.0901 0.868641 31.9656 1.18217 31.9656H15.3883C15.7019 31.9656 16.0026 32.0901 16.2243 32.3118C16.446 32.5335 16.5705 32.8342 16.5705 33.1477V40.2475C16.5705 40.561 16.446 40.8617 16.2243 41.0834C16.0026 41.3051 15.7019 41.4297 15.3883 41.4297ZM2.36435 39.0653H14.1995V34.3299H2.36435V39.0653Z" fill="#7C94FF"/>
<path d="M55.6305 41.4297H41.4244C41.1108 41.4297 40.8101 41.3051 40.5884 41.0834C40.3667 40.8617 40.2422 40.561 40.2422 40.2475V33.1477C40.2422 32.8342 40.3667 32.5335 40.5884 32.3118C40.8101 32.0901 41.1108 31.9656 41.4244 31.9656H55.6305C55.944 31.9656 56.2447 32.0901 56.4664 32.3118C56.6881 32.5335 56.8127 32.8342 56.8127 33.1477V40.2475C56.8127 40.561 56.6881 40.8617 56.4664 41.0834C56.2447 41.3051 55.944 41.4297 55.6305 41.4297ZM42.6132 39.0653H54.4483V34.3299H42.6132V39.0653Z" fill="#7C94FF"/>
<path d="M5.91876 23.6768C5.60461 23.6768 5.30322 23.5525 5.08046 23.3309C4.8577 23.1094 4.73167 22.8088 4.7299 22.4946V5.92411C4.71765 5.76094 4.7392 5.59704 4.79323 5.44259C4.84725 5.28814 4.93257 5.14649 5.04385 5.02654C5.15514 4.90658 5.28998 4.81086 5.43995 4.74542C5.58993 4.67998 5.75179 4.64624 5.91541 4.64624C6.07904 4.64624 6.24091 4.67998 6.39088 4.74542C6.54085 4.81086 6.67569 4.90658 6.78698 5.02654C6.89826 5.14649 6.98358 5.28814 7.03761 5.44259C7.09163 5.59704 7.11319 5.76094 7.10093 5.92411V22.4946C7.10093 22.6499 7.07036 22.8036 7.01095 22.947C6.95154 23.0904 6.86446 23.2208 6.75468 23.3305C6.64491 23.4403 6.51458 23.5274 6.37115 23.5868C6.22772 23.6462 6.074 23.6768 5.91876 23.6768Z" fill="#7C94FF"/>
<path d="M10.6551 23.6768C10.3409 23.6768 10.0396 23.5525 9.81679 23.3309C9.59403 23.1094 9.468 22.8088 9.46623 22.4946V5.92411C9.45397 5.76094 9.47553 5.59704 9.52955 5.44259C9.58358 5.28814 9.6689 5.14649 9.78018 5.02654C9.89147 4.90658 10.0263 4.81086 10.1763 4.74542C10.3263 4.67998 10.4881 4.64624 10.6517 4.64624C10.8154 4.64624 10.9772 4.67998 11.1272 4.74542C11.2772 4.81086 11.412 4.90658 11.5233 5.02654C11.6346 5.14649 11.7199 5.28814 11.7739 5.44259C11.828 5.59704 11.8495 5.76094 11.8373 5.92411V22.4946C11.8373 22.6499 11.8067 22.8036 11.7473 22.947C11.6879 23.0904 11.6008 23.2208 11.491 23.3305C11.3812 23.4403 11.2509 23.5274 11.1075 23.5868C10.9641 23.6462 10.8103 23.6768 10.6551 23.6768Z" fill="#7C94FF"/>
<path d="M26.0418 23.6768C25.7277 23.6768 25.4263 23.5525 25.2035 23.3309C24.9807 23.1094 24.8547 22.8088 24.8529 22.4946V5.92411C24.8407 5.76094 24.8623 5.59704 24.9163 5.44259C24.9703 5.28814 25.0556 5.14649 25.1669 5.02654C25.2782 4.90658 25.413 4.81086 25.563 4.74542C25.713 4.67998 25.8748 4.64624 26.0385 4.64624C26.2021 4.64624 26.364 4.67998 26.5139 4.74542C26.6639 4.81086 26.7987 4.90658 26.91 5.02654C27.0213 5.14649 27.1066 5.28814 27.1607 5.44259C27.2147 5.59704 27.2362 5.76094 27.224 5.92411V22.4946C27.224 22.6499 27.1934 22.8036 27.134 22.947C27.0746 23.0904 26.9875 23.2208 26.8777 23.3305C26.768 23.4403 26.6376 23.5274 26.4942 23.5868C26.3508 23.6462 26.197 23.6768 26.0418 23.6768Z" fill="#7C94FF"/>
<path d="M30.7695 23.6768C30.456 23.6768 30.1553 23.5522 29.9336 23.3305C29.7119 23.1088 29.5873 22.8081 29.5873 22.4946V5.92411C29.5751 5.76094 29.5966 5.59704 29.6506 5.44259C29.7047 5.28814 29.79 5.14649 29.9013 5.02654C30.0126 4.90658 30.1474 4.81086 30.2974 4.74542C30.4474 4.67998 30.6092 4.64624 30.7728 4.64624C30.9365 4.64624 31.0983 4.67998 31.2483 4.74542C31.3983 4.81086 31.5331 4.90658 31.6444 5.02654C31.7557 5.14649 31.841 5.28814 31.895 5.44259C31.9491 5.59704 31.9706 5.76094 31.9584 5.92411V22.4946C31.9566 22.8088 31.8306 23.1094 31.6078 23.3309C31.385 23.5525 31.0836 23.6768 30.7695 23.6768Z" fill="#7C94FF"/>
<path d="M46.1797 23.6768C45.8661 23.6768 45.5654 23.5522 45.3437 23.3305C45.122 23.1088 44.9975 22.8081 44.9975 22.4946V5.92411C44.9852 5.76094 45.0068 5.59704 45.0608 5.44259C45.1148 5.28814 45.2001 5.14649 45.3114 5.02654C45.4227 4.90658 45.5576 4.81086 45.7075 4.74542C45.8575 4.67998 46.0194 4.64624 46.183 4.64624C46.3466 4.64624 46.5085 4.67998 46.6585 4.74542C46.8084 4.81086 46.9433 4.90658 47.0546 5.02654C47.1658 5.14649 47.2512 5.28814 47.3052 5.44259C47.3592 5.59704 47.3808 5.76094 47.3685 5.92411V22.4946C47.3667 22.8088 47.2407 23.1094 47.018 23.3309C46.7952 23.5525 46.4938 23.6768 46.1797 23.6768Z" fill="#7C94FF"/>
<path d="M50.8945 23.6768C50.7393 23.6768 50.5855 23.6462 50.4421 23.5868C50.2987 23.5274 50.1684 23.4403 50.0586 23.3305C49.9488 23.2208 49.8617 23.0904 49.8023 22.947C49.7429 22.8036 49.7123 22.6499 49.7123 22.4946V5.92411C49.7001 5.76094 49.7216 5.59704 49.7757 5.44259C49.8297 5.28814 49.915 5.14649 50.0263 5.02654C50.1376 4.90658 50.2724 4.81086 50.4224 4.74542C50.5724 4.67998 50.7342 4.64624 50.8978 4.64624C51.0615 4.64624 51.2233 4.67998 51.3733 4.74542C51.5233 4.81086 51.6581 4.90658 51.7694 5.02654C51.8807 5.14649 51.966 5.28814 52.02 5.44259C52.0741 5.59704 52.0956 5.76094 52.0834 5.92411V22.4946C52.0816 22.8088 51.9556 23.1094 51.7328 23.3309C51.51 23.5525 51.2087 23.6768 50.8945 23.6768Z" fill="#7C94FF"/>
</svg>
